<svg xmlns="http://www.w3.org/2000/svg" xmlns:xlink="http://www.w3.org/1999/xlink" width="500" zoomAndPan="magnify" viewBox="0 0 375 374.999991" height="500" preserveAspectRatio="xMidYMid meet" version="1.2"><defs><clipPath id="cbf334fcc0"><path d="M 19.671875 169.179688 L 355.574219 169.179688 L 355.574219 222.5 L 19.671875 222.5 Z M 19.671875 169.179688 "/></clipPath><clipPath id="04fc6bf806"><path d="M 246.460938 188.25 C 249.867188 188.839844 253.28125 189.667969 256.652344 190.765625 C 258.339844 191.320312 260.027344 191.90625 261.6875 192.574219 L 264.359375 193.617188 L 267.1875 194.679688 C 274.738281 197.453125 282.472656 199.792969 290.367188 201.472656 C 298.257812 203.140625 306.316406 204.164062 314.410156 204.125 C 322.480469 204.066406 330.644531 202.96875 338.167969 199.984375 C 341.910156 198.488281 345.472656 196.503906 348.542969 193.933594 C 351.597656 191.371094 354.136719 188.15625 355.574219 184.539062 C 353.613281 187.90625 350.734375 190.570312 347.527344 192.535156 C 344.304688 194.507812 340.753906 195.839844 337.117188 196.695312 C 329.816406 198.398438 322.230469 198.285156 314.859375 197.242188 C 307.472656 196.171875 300.238281 194.140625 293.234375 191.527344 C 286.226562 188.910156 279.441406 185.699219 272.863281 182.105469 L 270.402344 180.738281 L 269.183594 180.042969 L 267.808594 179.324219 C 265.960938 178.34375 264.0625 177.449219 262.140625 176.585938 C 258.285156 174.871094 254.265625 173.429688 250.128906 172.253906 C 241.847656 169.941406 232.992188 168.902344 224.125 169.507812 C 209.523438 170.507812 195.875 176.742188 183.832031 184.78125 C 178.324219 188.460938 172.988281 192.390625 167.40625 195.96875 C 161.515625 199.746094 155.929688 202.144531 148.992188 203.359375 C 142.445312 204.507812 135.613281 204.472656 128.785156 203.324219 C 125.378906 202.730469 121.964844 201.902344 118.589844 200.808594 C 116.90625 200.25 115.222656 199.667969 113.558594 199 L 110.886719 197.957031 L 108.0625 196.894531 C 100.507812 194.117188 92.773438 191.78125 84.878906 190.105469 C 76.988281 188.429688 68.925781 187.410156 60.835938 187.445312 C 52.769531 187.507812 44.601562 188.605469 37.082031 191.59375 C 33.335938 193.082031 29.773438 195.070312 26.703125 197.640625 C 23.644531 200.203125 21.109375 203.414062 19.671875 207.03125 C 21.632812 203.667969 24.507812 201.003906 27.71875 199.039062 C 30.941406 197.066406 34.492188 195.734375 38.128906 194.878906 C 45.425781 193.171875 53.015625 193.289062 60.386719 194.328125 C 67.777344 195.398438 75.007812 197.433594 82.011719 200.042969 C 89.015625 202.660156 95.804688 205.871094 102.382812 209.464844 L 104.839844 210.832031 L 106.066406 211.53125 L 107.4375 212.25 C 109.285156 213.226562 111.183594 214.125 113.105469 214.984375 C 116.960938 216.699219 120.976562 218.144531 125.117188 219.316406 C 133.398438 221.632812 142.253906 222.671875 151.121094 222.0625 C 161.691406 221.355469 172.019531 218.5 181.1875 213.21875 C 191.875 207.0625 201.113281 198.28125 212.222656 193.070312 C 222.878906 188.082031 234.832031 186.234375 246.460938 188.25 Z M 246.460938 188.25 "/></clipPath><clipPath id="d0443a1d37"><path d="M 246.460938 188.25 C 249.867188 188.839844 253.28125 189.667969 256.652344 190.765625 C 258.339844 191.320312 260.027344 191.90625 261.6875 192.574219 L 264.359375 193.617188 L 267.1875 194.679688 C 274.738281 197.453125 282.472656 199.792969 290.367188 201.472656 C 298.257812 203.140625 306.316406 204.164062 314.410156 204.125 C 322.480469 204.066406 330.644531 202.96875 338.167969 199.984375 C 341.910156 198.488281 345.472656 196.503906 348.542969 193.933594 C 351.597656 191.371094 354.136719 188.15625 355.574219 184.539062 C 353.613281 187.90625 350.734375 190.570312 347.527344 192.535156 C 344.304688 194.507812 340.753906 195.839844 337.117188 196.695312 C 329.816406 198.398438 322.230469 198.285156 314.859375 197.242188 C 307.472656 196.171875 300.238281 194.140625 293.234375 191.527344 C 286.226562 188.910156 279.441406 185.699219 272.863281 182.105469 L 270.402344 180.738281 L 269.183594 180.042969 L 267.808594 179.324219 C 265.960938 178.34375 264.0625 177.449219 262.140625 176.585938 C 258.285156 174.871094 254.265625 173.429688 250.128906 172.253906 C 241.847656 169.941406 232.992188 168.902344 224.125 169.507812 C 209.523438 170.507812 195.875 176.742188 183.832031 184.78125 C 178.324219 188.460938 172.988281 192.390625 167.40625 195.96875 C 161.515625 199.746094 155.929688 202.144531 148.992188 203.359375 C 142.445312 204.507812 135.613281 204.472656 128.785156 203.324219 C 125.378906 202.730469 121.964844 201.902344 118.589844 200.808594 C 116.90625 200.25 115.222656 199.667969 113.558594 199 L 110.886719 197.957031 L 108.0625 196.894531 C 100.507812 194.117188 92.773438 191.78125 84.878906 190.105469 C 76.988281 188.429688 68.925781 187.410156 60.835938 187.445312 C 52.769531 187.507812 44.601562 188.605469 37.082031 191.59375 C 33.335938 193.082031 29.773438 195.070312 26.703125 197.640625 C 23.644531 200.203125 21.109375 203.414062 19.671875 207.03125 C 21.632812 203.667969 24.507812 201.003906 27.71875 199.039062 C 30.941406 197.066406 34.492188 195.734375 38.128906 194.878906 C 45.425781 193.171875 53.015625 193.289062 60.386719 194.328125 C 67.777344 195.398438 75.007812 197.433594 82.011719 200.042969 C 89.015625 202.660156 95.804688 205.871094 102.382812 209.464844 L 104.839844 210.832031 L 106.066406 211.53125 L 107.4375 212.25 C 109.285156 213.226562 111.183594 214.125 113.105469 214.984375 C 116.960938 216.699219 120.976562 218.144531 125.117188 219.316406 C 133.398438 221.632812 142.253906 222.671875 151.121094 222.0625 C 161.691406 221.355469 172.019531 218.5 181.1875 213.21875 C 191.875 207.0625 201.113281 198.28125 212.222656 193.070312 C 222.878906 188.082031 234.832031 186.234375 246.460938 188.25 "/></clipPath><linearGradient x1="-0.000000121632" gradientTransform="matrix(0,140.169217,-140.25726,0,187.62314,169.178766)" y1="0" x2="0.380403" gradientUnits="userSpaceOnUse" y2="0" id="dcf6f98115"><stop style="stop-color:#69afe0;stop-opacity:1;" offset="0"/><stop style="stop-color:#69afe0;stop-opacity:1;" offset="0.03125"/><stop style="stop-color:#69afe0;stop-opacity:1;" offset="0.046875"/><stop style="stop-color:#68afe0;stop-opacity:1;" offset="0.0625"/><stop style="stop-color:#67afe0;stop-opacity:1;" offset="0.078125"/><stop style="stop-color:#67aee0;stop-opacity:1;" offset="0.09375"/><stop style="stop-color:#66aee0;stop-opacity:1;" offset="0.109375"/><stop style="stop-color:#66aee0;stop-opacity:1;" offset="0.125"/><stop style="stop-color:#65aee0;stop-opacity:1;" offset="0.140625"/><stop style="stop-color:#65aedf;stop-opacity:1;" offset="0.15625"/><stop style="stop-color:#64aedf;stop-opacity:1;" offset="0.171875"/><stop style="stop-color:#63aedf;stop-opacity:1;" offset="0.179688"/><stop style="stop-color:#63aedf;stop-opacity:1;" offset="0.1875"/><stop style="stop-color:#62addf;stop-opacity:1;" offset="0.203125"/><stop style="stop-color:#62addf;stop-opacity:1;" offset="0.21875"/><stop style="stop-color:#61addf;stop-opacity:1;" offset="0.226563"/><stop style="stop-color:#61addf;stop-opacity:1;" offset="0.234375"/><stop style="stop-color:#60addf;stop-opacity:1;" offset="0.25"/><stop style="stop-color:#5faddf;stop-opacity:1;" offset="0.28125"/><stop style="stop-color:#5eacdf;stop-opacity:1;" offset="0.296875"/><stop style="stop-color:#5dacdf;stop-opacity:1;" offset="0.3125"/><stop style="stop-color:#5dacdf;stop-opacity:1;" offset="0.320313"/><stop style="stop-color:#5cacde;stop-opacity:1;" offset="0.328125"/><stop style="stop-color:#5bacde;stop-opacity:1;" offset="0.34375"/><stop style="stop-color:#5babde;stop-opacity:1;" offset="0.359375"/><stop style="stop-color:#5aabde;stop-opacity:1;" offset="0.375"/><stop style="stop-color:#59abde;stop-opacity:1;" offset="0.390625"/><stop style="stop-color:#59abde;stop-opacity:1;" offset="0.398438"/><stop style="stop-color:#58abde;stop-opacity:1;" offset="0.40625"/><stop style="stop-color:#57abde;stop-opacity:1;" offset="0.421875"/><stop style="stop-color:#56aade;stop-opacity:1;" offset="0.4375"/><stop style="stop-color:#56aade;stop-opacity:1;" offset="0.445313"/><stop style="stop-color:#55aade;stop-opacity:1;" offset="0.453125"/><stop style="stop-color:#54aade;stop-opacity:1;" offset="0.46875"/><stop style="stop-color:#54aadd;stop-opacity:1;" offset="0.476563"/><stop style="stop-color:#53a9dd;stop-opacity:1;" offset="0.484375"/><stop style="stop-color:#52a9dd;stop-opacity:1;" offset="0.5"/><stop style="stop-color:#52a9dd;stop-opacity:1;" offset="0.515625"/><stop style="stop-color:#51a9dd;stop-opacity:1;" offset="0.519531"/><stop style="stop-color:#50a9dd;stop-opacity:1;" offset="0.523438"/><stop style="stop-color:#50a9dd;stop-opacity:1;" offset="0.53125"/><stop style="stop-color:#50a9dd;stop-opacity:1;" offset="0.546875"/><stop style="stop-color:#4fa8dd;stop-opacity:1;" offset="0.554688"/><stop style="stop-color:#4ea8dd;stop-opacity:1;" offset="0.5625"/><stop style="stop-color:#4ea8dd;stop-opacity:1;" offset="0.566406"/><stop style="stop-color:#4da8dd;stop-opacity:1;" offset="0.570312"/><stop style="stop-color:#4da8dd;stop-opacity:1;" offset="0.578125"/><stop style="stop-color:#4da8dd;stop-opacity:1;" offset="0.585938"/><stop style="stop-color:#4ca8dc;stop-opacity:1;" offset="0.59375"/><stop style="stop-color:#4ca7dc;stop-opacity:1;" offset="0.601562"/><stop style="stop-color:#4ba7dc;stop-opacity:1;" offset="0.609375"/><stop style="stop-color:#4aa7dc;stop-opacity:1;" offset="0.617188"/><stop style="stop-color:#4aa7dc;stop-opacity:1;" offset="0.625"/><stop style="stop-color:#49a7dc;stop-opacity:1;" offset="0.632812"/><stop style="stop-color:#49a7dc;stop-opacity:1;" offset="0.640625"/><stop style="stop-color:#48a7dc;stop-opacity:1;" offset="0.648438"/><stop style="stop-color:#48a7dc;stop-opacity:1;" offset="0.65625"/><stop style="stop-color:#47a6dc;stop-opacity:1;" offset="0.664062"/><stop style="stop-color:#47a6dc;stop-opacity:1;" offset="0.671875"/><stop style="stop-color:#46a6dc;stop-opacity:1;" offset="0.6875"/><stop style="stop-color:#45a6dc;stop-opacity:1;" offset="0.695312"/><stop style="stop-color:#45a6dc;stop-opacity:1;" offset="0.703125"/><stop style="stop-color:#44a6db;stop-opacity:1;" offset="0.710938"/><stop style="stop-color:#44a5db;stop-opacity:1;" offset="0.71875"/><stop style="stop-color:#43a5db;stop-opacity:1;" offset="0.726562"/><stop style="stop-color:#43a5db;stop-opacity:1;" offset="0.734375"/><stop style="stop-color:#42a5db;stop-opacity:1;" offset="0.75"/><stop style="stop-color:#41a5db;stop-opacity:1;" offset="0.757812"/><stop style="stop-color:#40a5db;stop-opacity:1;" offset="0.765625"/><stop style="stop-color:#40a4db;stop-opacity:1;" offset="0.773438"/><stop style="stop-color:#3fa4db;stop-opacity:1;" offset="0.78125"/><stop style="stop-color:#3fa4db;stop-opacity:1;" offset="0.789062"/><stop style="stop-color:#3ea4db;stop-opacity:1;" offset="0.796875"/><stop style="stop-color:#3ea4db;stop-opacity:1;" offset="0.804687"/><stop style="stop-color:#3da4db;stop-opacity:1;" offset="0.8125"/><stop style="stop-color:#3ca4da;stop-opacity:1;" offset="0.820312"/><stop style="stop-color:#3ca3da;stop-opacity:1;" offset="0.828125"/><stop style="stop-color:#3ba3da;stop-opacity:1;" offset="0.84375"/><stop style="stop-color:#3aa3da;stop-opacity:1;" offset="0.851562"/><stop style="stop-color:#39a3da;stop-opacity:1;" offset="0.859375"/><stop style="stop-color:#39a3da;stop-opacity:1;" offset="0.867187"/><stop style="stop-color:#38a2da;stop-opacity:1;" offset="0.875"/><stop style="stop-color:#38a2da;stop-opacity:1;" offset="0.882812"/><stop style="stop-color:#37a2da;stop-opacity:1;" offset="0.890625"/><stop style="stop-color:#36a2da;stop-opacity:1;" offset="0.898438"/><stop style="stop-color:#36a2da;stop-opacity:1;" offset="0.90625"/><stop style="stop-color:#35a2da;stop-opacity:1;" offset="0.921875"/><stop style="stop-color:#34a1d9;stop-opacity:1;" offset="0.929687"/><stop style="stop-color:#33a1d9;stop-opacity:1;" offset="0.9375"/><stop style="stop-color:#33a1d9;stop-opacity:1;" offset="0.945312"/><stop style="stop-color:#32a1d9;stop-opacity:1;" offset="0.953125"/><stop style="stop-color:#32a1d9;stop-opacity:1;" offset="0.960938"/><stop style="stop-color:#31a1d9;stop-opacity:1;" offset="0.96875"/><stop style="stop-color:#30a0d9;stop-opacity:1;" offset="0.976562"/><stop style="stop-color:#30a0d9;stop-opacity:1;" offset="0.984375"/><stop style="stop-color:#2fa0d9;stop-opacity:1;" offset="0.992188"/><stop style="stop-color:#2fa0d9;stop-opacity:1;" offset="1"/></linearGradient><clipPath id="f32e1f8e9a"><path d="M 100.507812 215.203125 L 160.039062 215.203125 L 160.039062 301.871094 L 100.507812 301.871094 Z M 100.507812 215.203125 "/></clipPath><clipPath id="e9f45f2f95"><path d="M 146.0625 228.160156 C 138.554688 228.160156 130.992188 227.109375 123.519531 225.023438 C 119.089844 223.769531 114.78125 222.214844 110.699219 220.398438 C 108.316406 219.328125 106.40625 218.410156 104.667969 217.484375 L 101.910156 215.980469 L 100.507812 215.203125 L 100.507812 301.875 L 160.039062 301.875 L 160.039062 226.957031 C 157.257812 227.4375 154.417969 227.777344 151.519531 227.972656 C 149.703125 228.101562 147.886719 228.160156 146.0625 228.160156 Z M 146.0625 228.160156 "/></clipPath><clipPath id="92e776ae46"><path d="M 146.0625 228.160156 C 138.554688 228.160156 130.992188 227.109375 123.519531 225.023438 C 119.089844 223.769531 114.78125 222.214844 110.699219 220.398438 C 108.316406 219.328125 106.40625 218.410156 104.667969 217.484375 L 101.910156 215.980469 L 100.507812 215.203125 L 100.507812 301.875 L 160.039062 301.875 L 160.039062 226.957031 C 157.257812 227.4375 154.417969 227.777344 151.519531 227.972656 C 149.703125 228.101562 147.886719 228.160156 146.0625 228.160156 "/></clipPath><linearGradient x1="0.328338" gradientTransform="matrix(0,140.169217,-140.25726,0,130.272248,169.178766)" y1="0" x2="0.94665" gradientUnits="userSpaceOnUse" y2="0" id="1e34beda7f"><stop style="stop-color:#38a3da;stop-opacity:1;" offset="0"/><stop style="stop-color:#38a2da;stop-opacity:1;" offset="0.0078125"/><stop style="stop-color:#38a2da;stop-opacity:1;" offset="0.015625"/><stop style="stop-color:#36a2da;stop-opacity:1;" offset="0.0195312"/><stop style="stop-color:#36a2da;stop-opacity:1;" offset="0.0234375"/><stop style="stop-color:#35a2da;stop-opacity:1;" offset="0.03125"/><stop style="stop-color:#34a1d9;stop-opacity:1;" offset="0.0390625"/><stop style="stop-color:#33a1d9;stop-opacity:1;" offset="0.046875"/><stop style="stop-color:#32a1d9;stop-opacity:1;" offset="0.0546875"/><stop style="stop-color:#31a1d9;stop-opacity:1;" offset="0.0625"/><stop style="stop-color:#30a0d9;stop-opacity:1;" offset="0.0664062"/><stop style="stop-color:#30a0d9;stop-opacity:1;" offset="0.0703125"/><stop style="stop-color:#2fa0d9;stop-opacity:1;" offset="0.078125"/><stop style="stop-color:#2ea0d9;stop-opacity:1;" offset="0.0859375"/><stop style="stop-color:#2d9fd9;stop-opacity:1;" offset="0.09375"/><stop style="stop-color:#2c9fd8;stop-opacity:1;" offset="0.101563"/><stop style="stop-color:#2c9fd8;stop-opacity:1;" offset="0.105469"/><stop style="stop-color:#2b9fd8;stop-opacity:1;" offset="0.109375"/><stop style="stop-color:#2a9fd8;stop-opacity:1;" offset="0.117188"/><stop style="stop-color:#299fd8;stop-opacity:1;" offset="0.121094"/><stop style="stop-color:#299ed8;stop-opacity:1;" offset="0.125"/><stop style="stop-color:#289ed8;stop-opacity:1;" offset="0.132812"/><stop style="stop-color:#279ed8;stop-opacity:1;" offset="0.136719"/><stop style="stop-color:#269ed8;stop-opacity:1;" offset="0.140625"/><stop style="stop-color:#259ed8;stop-opacity:1;" offset="0.144531"/><stop style="stop-color:#259ed8;stop-opacity:1;" offset="0.148438"/><stop style="stop-color:#249dd8;stop-opacity:1;" offset="0.152344"/><stop style="stop-color:#249dd8;stop-opacity:1;" offset="0.15625"/><stop style="stop-color:#239dd7;stop-opacity:1;" offset="0.160156"/><stop style="stop-color:#239dd7;stop-opacity:1;" offset="0.164063"/><stop style="stop-color:#229dd7;stop-opacity:1;" offset="0.167969"/><stop style="stop-color:#229dd7;stop-opacity:1;" offset="0.171875"/><stop style="stop-color:#219dd7;stop-opacity:1;" offset="0.175781"/><stop style="stop-color:#219dd7;stop-opacity:1;" offset="0.179688"/><stop style="stop-color:#209dd7;stop-opacity:1;" offset="0.183594"/><stop style="stop-color:#209cd7;stop-opacity:1;" offset="0.1875"/><stop style="stop-color:#209cd7;stop-opacity:1;" offset="0.195313"/><stop style="stop-color:#1f9cd7;stop-opacity:1;" offset="0.199219"/><stop style="stop-color:#1e9cd7;stop-opacity:1;" offset="0.203125"/><stop style="stop-color:#1e9cd7;stop-opacity:1;" offset="0.207031"/><stop style="stop-color:#1d9bd7;stop-opacity:1;" offset="0.210938"/><stop style="stop-color:#1d9bd6;stop-opacity:1;" offset="0.214844"/><stop style="stop-color:#1c9bd6;stop-opacity:1;" offset="0.21875"/><stop style="stop-color:#1c9bd6;stop-opacity:1;" offset="0.222656"/><stop style="stop-color:#1b9bd6;stop-opacity:1;" offset="0.226563"/><stop style="stop-color:#1a9bd6;stop-opacity:1;" offset="0.230469"/><stop style="stop-color:#1a9bd6;stop-opacity:1;" offset="0.234375"/><stop style="stop-color:#199ad6;stop-opacity:1;" offset="0.242188"/><stop style="stop-color:#189ad6;stop-opacity:1;" offset="0.25"/><stop style="stop-color:#179ad6;stop-opacity:1;" offset="0.257813"/><stop style="stop-color:#169ad6;stop-opacity:1;" offset="0.261719"/><stop style="stop-color:#159ad6;stop-opacity:1;" offset="0.265625"/><stop style="stop-color:#149ad6;stop-opacity:1;" offset="0.269531"/><stop style="stop-color:#1499d6;stop-opacity:1;" offset="0.273438"/><stop style="stop-color:#1499d5;stop-opacity:1;" offset="0.28125"/><stop style="stop-color:#1399d5;stop-opacity:1;" offset="0.285156"/><stop style="stop-color:#1299d5;stop-opacity:1;" offset="0.289063"/><stop style="stop-color:#1298d5;stop-opacity:1;" offset="0.292969"/><stop style="stop-color:#1198d5;stop-opacity:1;" offset="0.296875"/><stop style="stop-color:#1198d5;stop-opacity:1;" offset="0.304688"/><stop style="stop-color:#1098d5;stop-opacity:1;" offset="0.308594"/><stop style="stop-color:#0f98d5;stop-opacity:1;" offset="0.3125"/><stop style="stop-color:#0e98d5;stop-opacity:1;" offset="0.316406"/><stop style="stop-color:#0e98d5;stop-opacity:1;" offset="0.320312"/><stop style="stop-color:#0d97d5;stop-opacity:1;" offset="0.328125"/><stop style="stop-color:#0c97d4;stop-opacity:1;" offset="0.332031"/><stop style="stop-color:#0b97d4;stop-opacity:1;" offset="0.335938"/><stop style="stop-color:#0a97d4;stop-opacity:1;" offset="0.339844"/><stop style="stop-color:#0a97d4;stop-opacity:1;" offset="0.34375"/><stop style="stop-color:#0996d4;stop-opacity:1;" offset="0.347656"/><stop style="stop-color:#0996d4;stop-opacity:1;" offset="0.351563"/><stop style="stop-color:#0896d4;stop-opacity:1;" offset="0.355469"/><stop style="stop-color:#0896d4;stop-opacity:1;" offset="0.359375"/><stop style="stop-color:#0796d4;stop-opacity:1;" offset="0.367188"/><stop style="stop-color:#0695d4;stop-opacity:1;" offset="0.371094"/><stop style="stop-color:#0695d4;stop-opacity:1;" offset="0.375"/><stop style="stop-color:#0695d4;stop-opacity:1;" offset="0.382813"/><stop style="stop-color:#0495d3;stop-opacity:1;" offset="0.386719"/><stop style="stop-color:#0395d3;stop-opacity:1;" offset="0.390625"/><stop style="stop-color:#0395d3;stop-opacity:1;" offset="0.394531"/><stop style="stop-color:#0295d3;stop-opacity:1;" offset="0.398438"/><stop style="stop-color:#0294d3;stop-opacity:1;" offset="0.402344"/><stop style="stop-color:#0194d3;stop-opacity:1;" offset="0.40625"/><stop style="stop-color:#0194d3;stop-opacity:1;" offset="0.410156"/><stop style="stop-color:#0094d3;stop-opacity:1;" offset="0.414063"/><stop style="stop-color:#0094d3;stop-opacity:1;" offset="0.421875"/><stop style="stop-color:#0093d3;stop-opacity:1;" offset="0.4375"/><stop style="stop-color:#0093d2;stop-opacity:1;" offset="0.453125"/><stop style="stop-color:#0092d2;stop-opacity:1;" offset="0.46875"/><stop style="stop-color:#0092d1;stop-opacity:1;" offset="0.476563"/><stop style="stop-color:#0091d1;stop-opacity:1;" offset="0.484375"/><stop style="stop-color:#0091d1;stop-opacity:1;" offset="0.5"/><stop style="stop-color:#0090d0;stop-opacity:1;" offset="0.515625"/><stop style="stop-color:#008fd0;stop-opacity:1;" offset="0.523438"/><stop style="stop-color:#008ecf;stop-opacity:1;" offset="0.53125"/><stop style="stop-color:#008ecf;stop-opacity:1;" offset="0.546875"/><stop style="stop-color:#008dcf;stop-opacity:1;" offset="0.5625"/><stop style="stop-color:#008dce;stop-opacity:1;" offset="0.570313"/><stop style="stop-color:#008cce;stop-opacity:1;" offset="0.578125"/><stop style="stop-color:#008bce;stop-opacity:1;" offset="0.59375"/><stop style="stop-color:#008bcd;stop-opacity:1;" offset="0.601563"/><stop style="stop-color:#008acd;stop-opacity:1;" offset="0.609375"/><stop style="stop-color:#0089cd;stop-opacity:1;" offset="0.625"/><stop style="stop-color:#0089cc;stop-opacity:1;" offset="0.640625"/><stop style="stop-color:#0089cc;stop-opacity:1;" offset="0.648437"/><stop style="stop-color:#0088cb;stop-opacity:1;" offset="0.65625"/><stop style="stop-color:#0087ca;stop-opacity:1;" offset="0.671875"/><stop style="stop-color:#0086ca;stop-opacity:1;" offset="0.6875"/><stop style="stop-color:#0086ca;stop-opacity:1;" offset="0.695312"/><stop style="stop-color:#0085c9;stop-opacity:1;" offset="0.703125"/><stop style="stop-color:#0085c9;stop-opacity:1;" offset="0.71875"/><stop style="stop-color:#0085c9;stop-opacity:1;" offset="0.726562"/><stop style="stop-color:#0084c8;stop-opacity:1;" offset="0.734375"/><stop style="stop-color:#0084c8;stop-opacity:1;" offset="0.75"/><stop style="stop-color:#0083c7;stop-opacity:1;" offset="0.765625"/><stop style="stop-color:#0082c7;stop-opacity:1;" offset="0.773438"/><stop style="stop-color:#0081c7;stop-opacity:1;" offset="0.78125"/><stop style="stop-color:#0081c6;stop-opacity:1;" offset="0.796875"/><stop style="stop-color:#0080c6;stop-opacity:1;" offset="0.8125"/><stop style="stop-color:#0080c6;stop-opacity:1;" offset="0.820313"/><stop style="stop-color:#007fc5;stop-opacity:1;" offset="0.828125"/><stop style="stop-color:#007fc5;stop-opacity:1;" offset="0.84375"/><stop style="stop-color:#007ec5;stop-opacity:1;" offset="0.851563"/><stop style="stop-color:#007dc4;stop-opacity:1;" offset="0.859375"/><stop style="stop-color:#007cc4;stop-opacity:1;" offset="0.875"/><stop style="stop-color:#007cc3;stop-opacity:1;" offset="0.890625"/><stop style="stop-color:#007cc3;stop-opacity:1;" offset="0.898437"/><stop style="stop-color:#007bc2;stop-opacity:1;" offset="0.90625"/><stop style="stop-color:#007ac2;stop-opacity:1;" offset="0.921875"/><stop style="stop-color:#007ac2;stop-opacity:1;" offset="0.9375"/><stop style="stop-color:#0079c1;stop-opacity:1;" offset="0.945312"/><stop style="stop-color:#0078c1;stop-opacity:1;" offset="0.953125"/><stop style="stop-color:#0078c1;stop-opacity:1;" offset="0.96875"/><stop style="stop-color:#0078c0;stop-opacity:1;" offset="0.976562"/><stop style="stop-color:#0077c0;stop-opacity:1;" offset="0.984375"/><stop style="stop-color:#0077c0;stop-opacity:1;" offset="1"/></linearGradient><clipPath id="24c63ca584"><path d="M 19.601562 73.121094 L 275 73.121094 L 275 191 L 19.601562 191 Z M 19.601562 73.121094 "/></clipPath><clipPath id="1e34d08c59"><path d="M 187.585938 200.925781 L 355.574219 200.925781 L 355.574219 231.703125 L 187.585938 231.703125 Z M 187.585938 200.925781 "/></clipPath><clipPath id="a904541fe5"><path d="M 341.382812 213.246094 C 339.6875 213.988281 337.96875 214.652344 336.238281 215.242188 C 329.28125 217.582031 322.039062 218.5 314.929688 218.195312 C 307.8125 217.890625 300.820312 216.425781 294.105469 214.160156 C 282.714844 210.320312 272.5 204.902344 260.417969 202.617188 C 259.671875 202.472656 258.925781 202.34375 258.175781 202.21875 C 246.980469 200.367188 235.242188 200.476562 224.144531 203.398438 C 216.007812 205.511719 208.363281 209.21875 202.054688 214.132812 C 197.625 217.570312 193.847656 221.589844 190.894531 225.953125 C 189.640625 227.816406 188.519531 229.730469 187.585938 231.703125 C 189.84375 229.652344 192.167969 227.734375 194.566406 225.953125 L 197.265625 225.953125 C 218.269531 225.953125 234.964844 221.425781 247.40625 212.414062 C 254.261719 213.167969 261.023438 214.640625 267.523438 216.539062 C 275.230469 218.785156 282.441406 222.109375 290.226562 224.1875 C 294.167969 225.207031 298.230469 225.988281 302.359375 226.4375 C 306.492188 226.859375 310.691406 227.011719 314.886719 226.6875 C 323.265625 226.132812 331.5625 223.789062 338.660156 219.886719 C 342.210938 217.949219 345.464844 215.621094 348.339844 213.015625 C 351.1875 210.402344 353.726562 207.511719 355.574219 204.335938 C 352.75 206.84375 349.597656 208.925781 346.355469 210.757812 C 344.734375 211.671875 343.058594 212.484375 341.382812 213.246094 Z M 341.382812 213.246094 "/></clipPath><clipPath id="3f1441a1ba"><path d="M 341.382812 213.246094 C 339.6875 213.988281 337.96875 214.652344 336.238281 215.242188 C 329.28125 217.582031 322.039062 218.5 314.929688 218.195312 C 307.8125 217.890625 300.820312 216.425781 294.105469 214.160156 C 282.714844 210.320312 272.5 204.902344 260.417969 202.617188 C 259.671875 202.472656 258.925781 202.34375 258.175781 202.21875 C 246.980469 200.367188 235.242188 200.476562 224.144531 203.398438 C 216.007812 205.511719 208.363281 209.21875 202.054688 214.132812 C 197.625 217.570312 193.847656 221.589844 190.894531 225.953125 C 189.640625 227.816406 188.519531 229.730469 187.585938 231.703125 C 189.84375 229.652344 192.167969 227.734375 194.566406 225.953125 L 197.265625 225.953125 C 218.269531 225.953125 234.964844 221.425781 247.40625 212.414062 C 254.261719 213.167969 261.023438 214.640625 267.523438 216.539062 C 275.230469 218.785156 282.441406 222.109375 290.226562 224.1875 C 294.167969 225.207031 298.230469 225.988281 302.359375 226.4375 C 306.492188 226.859375 310.691406 227.011719 314.886719 226.6875 C 323.265625 226.132812 331.5625 223.789062 338.660156 219.886719 C 342.210938 217.949219 345.464844 215.621094 348.339844 213.015625 C 351.1875 210.402344 353.726562 207.511719 355.574219 204.335938 C 352.75 206.84375 349.597656 208.925781 346.355469 210.757812 C 344.734375 211.671875 343.058594 212.484375 341.382812 213.246094 "/></clipPath><linearGradient x1="0.226499" gradientTransform="matrix(0,140.169217,-140.25726,0,271.580628,169.178736)" y1="0" x2="0.446057" gradientUnits="userSpaceOnUse" y2="0" id="8ad4b11367"><stop style="stop-color:#4ca7dc;stop-opacity:1;" offset="0"/><stop style="stop-color:#4ca7dc;stop-opacity:1;" offset="0.0078125"/><stop style="stop-color:#4ba7dc;stop-opacity:1;" offset="0.015625"/><stop style="stop-color:#4ba7dc;stop-opacity:1;" offset="0.03125"/><stop style="stop-color:#4aa7dc;stop-opacity:1;" offset="0.046875"/><stop style="stop-color:#4aa7dc;stop-opacity:1;" offset="0.0546875"/><stop style="stop-color:#49a7dc;stop-opacity:1;" offset="0.0625"/><stop style="stop-color:#49a7dc;stop-opacity:1;" offset="0.078125"/><stop style="stop-color:#48a7dc;stop-opacity:1;" offset="0.09375"/><stop style="stop-color:#47a7dc;stop-opacity:1;" offset="0.109375"/><stop style="stop-color:#47a6dc;stop-opacity:1;" offset="0.125"/><stop style="stop-color:#47a6dc;stop-opacity:1;" offset="0.15625"/><stop style="stop-color:#46a6dc;stop-opacity:1;" offset="0.171875"/><stop style="stop-color:#45a6dc;stop-opacity:1;" offset="0.179687"/><stop style="stop-color:#45a6db;stop-opacity:1;" offset="0.1875"/><stop style="stop-color:#44a6db;stop-opacity:1;" offset="0.203125"/><stop style="stop-color:#44a5db;stop-opacity:1;" offset="0.21875"/><stop style="stop-color:#43a5db;stop-opacity:1;" offset="0.234375"/><stop style="stop-color:#42a5db;stop-opacity:1;" offset="0.25"/><stop style="stop-color:#42a5db;stop-opacity:1;" offset="0.265625"/><stop style="stop-color:#41a5db;stop-opacity:1;" offset="0.28125"/><stop style="stop-color:#40a5db;stop-opacity:1;" offset="0.296875"/><stop style="stop-color:#40a4db;stop-opacity:1;" offset="0.3125"/><stop style="stop-color:#3fa4db;stop-opacity:1;" offset="0.320312"/><stop style="stop-color:#3fa4db;stop-opacity:1;" offset="0.328125"/><stop style="stop-color:#3ea4db;stop-opacity:1;" offset="0.34375"/><stop style="stop-color:#3ea4db;stop-opacity:1;" offset="0.359375"/><stop style="stop-color:#3da4db;stop-opacity:1;" offset="0.375"/><stop style="stop-color:#3ca4da;stop-opacity:1;" offset="0.390625"/><stop style="stop-color:#3ca3da;stop-opacity:1;" offset="0.40625"/><stop style="stop-color:#3ba3da;stop-opacity:1;" offset="0.421875"/><stop style="stop-color:#3aa3da;stop-opacity:1;" offset="0.4375"/><stop style="stop-color:#3aa3da;stop-opacity:1;" offset="0.453125"/><stop style="stop-color:#39a3da;stop-opacity:1;" offset="0.46875"/><stop style="stop-color:#38a2da;stop-opacity:1;" offset="0.5"/><stop style="stop-color:#37a2da;stop-opacity:1;" offset="0.507812"/><stop style="stop-color:#37a2da;stop-opacity:1;" offset="0.515625"/><stop style="stop-color:#36a2da;stop-opacity:1;" offset="0.523438"/><stop style="stop-color:#36a2da;stop-opacity:1;" offset="0.53125"/><stop style="stop-color:#35a2da;stop-opacity:1;" offset="0.5625"/><stop style="stop-color:#34a1d9;stop-opacity:1;" offset="0.570312"/><stop style="stop-color:#34a1d9;stop-opacity:1;" offset="0.578125"/><stop style="stop-color:#33a1d9;stop-opacity:1;" offset="0.59375"/><stop style="stop-color:#33a1d9;stop-opacity:1;" offset="0.609375"/><stop style="stop-color:#32a1d9;stop-opacity:1;" offset="0.625"/><stop style="stop-color:#31a1d9;stop-opacity:1;" offset="0.640625"/><stop style="stop-color:#31a0d9;stop-opacity:1;" offset="0.65625"/><stop style="stop-color:#30a0d9;stop-opacity:1;" offset="0.671875"/><stop style="stop-color:#2fa0d9;stop-opacity:1;" offset="0.679688"/><stop style="stop-color:#2fa0d9;stop-opacity:1;" offset="0.6875"/><stop style="stop-color:#2ea0d9;stop-opacity:1;" offset="0.703125"/><stop style="stop-color:#2ea0d9;stop-opacity:1;" offset="0.71875"/><stop style="stop-color:#2da0d9;stop-opacity:1;" offset="0.734375"/><stop style="stop-color:#2c9fd8;stop-opacity:1;" offset="0.75"/><stop style="stop-color:#2b9fd8;stop-opacity:1;" offset="0.765625"/><stop style="stop-color:#2b9fd8;stop-opacity:1;" offset="0.78125"/><stop style="stop-color:#2a9fd8;stop-opacity:1;" offset="0.796875"/><stop style="stop-color:#299fd8;stop-opacity:1;" offset="0.8125"/><stop style="stop-color:#289fd8;stop-opacity:1;" offset="0.828125"/><stop style="stop-color:#289ed8;stop-opacity:1;" offset="0.84375"/><stop style="stop-color:#289ed8;stop-opacity:1;" offset="0.851562"/><stop style="stop-color:#279ed8;stop-opacity:1;" offset="0.859375"/><stop style="stop-color:#269ed8;stop-opacity:1;" offset="0.875"/><stop style="stop-color:#259ed8;stop-opacity:1;" offset="0.890625"/><stop style="stop-color:#259ed8;stop-opacity:1;" offset="0.90625"/><stop style="stop-color:#249dd7;stop-opacity:1;" offset="0.921875"/><stop style="stop-color:#239dd7;stop-opacity:1;" offset="0.9375"/><stop style="stop-color:#229dd7;stop-opacity:1;" offset="0.953125"/><stop style="stop-color:#229dd7;stop-opacity:1;" offset="0.96875"/><stop style="stop-color:#229dd7;stop-opacity:1;" offset="0.976562"/><stop style="stop-color:#219cd7;stop-opacity:1;" offset="0.984375"/><stop style="stop-color:#209cd7;stop-opacity:1;" offset="1"/></linearGradient></defs><g id="413e33649f"><g clip-rule="nonzero" clip-path="url(#cbf334fcc0)"><g clip-rule="nonzero" clip-path="url(#04fc6bf806)"><g clip-rule="nonzero" clip-path="url(#d0443a1d37)"><path style=" stroke:none;fill-rule:nonzero;fill:url(#dcf6f98115);" d="M 355.574219 169.179688 L 19.671875 169.179688 L 19.671875 222.5 L 355.574219 222.5 Z M 355.574219 169.179688 "/></g></g></g><g clip-rule="nonzero" clip-path="url(#f32e1f8e9a)"><g clip-rule="nonzero" clip-path="url(#e9f45f2f95)"><g clip-rule="nonzero" clip-path="url(#92e776ae46)"><path style=" stroke:none;fill-rule:nonzero;fill:url(#1e34beda7f);" d="M 160.039062 215.203125 L 100.507812 215.203125 L 100.507812 301.871094 L 160.039062 301.871094 Z M 160.039062 215.203125 "/></g></g></g><g clip-rule="nonzero" clip-path="url(#24c63ca584)"><path style=" stroke:none;fill-rule:nonzero;fill:#f15a24;fill-opacity:1;" d="M 33.867188 178.328125 C 35.558594 177.582031 37.277344 176.921875 39.011719 176.332031 C 45.964844 173.992188 53.207031 173.074219 60.316406 173.375 C 67.433594 173.679688 74.429688 175.152344 81.140625 177.414062 C 87.796875 179.65625 94.046875 182.429688 100.507812 184.8125 C 105.105469 186.507812 109.804688 188.003906 114.832031 188.957031 C 126.691406 191.207031 139.265625 191.292969 151.101562 188.175781 C 158.90625 186.148438 166.246094 182.640625 172.402344 178.027344 C 172.664062 177.828125 172.933594 177.644531 173.191406 177.441406 C 179.503906 172.535156 184.535156 166.484375 187.660156 159.871094 C 182.035156 164.992188 175.984375 169.308594 169.441406 172.515625 C 166.390625 174.03125 163.242188 175.28125 160.039062 176.304688 L 160.039062 121.046875 L 180.054688 121.046875 C 192.058594 121.046875 200.550781 123.597656 205.542969 128.695312 C 210.53125 133.792969 213.027344 140.601562 213.027344 149.117188 C 213.027344 155.980469 211.625 161.683594 208.859375 166.277344 C 213.871094 164.839844 218.832031 163.9375 223.71875 163.597656 C 233.011719 162.957031 242.433594 163.957031 251.726562 166.554688 C 256.160156 167.808594 260.464844 169.363281 264.546875 171.175781 C 266.9375 172.246094 268.847656 173.171875 270.578125 174.085938 L 271.636719 174.664062 C 273.699219 166.679688 274.742188 157.945312 274.742188 148.449219 C 274.742188 127.464844 268.703125 110.226562 256.628906 96.71875 C 242.652344 80.984375 222.191406 73.117188 195.253906 73.117188 L 100.507812 73.117188 L 100.507812 172.644531 C 95.382812 170.800781 90.335938 168.804688 85.019531 167.382812 C 81.074219 166.367188 77.015625 165.585938 72.886719 165.132812 C 68.753906 164.714844 64.550781 164.558594 60.359375 164.890625 C 51.980469 165.4375 43.683594 167.78125 36.585938 171.6875 C 33.035156 173.628906 29.777344 175.953125 26.910156 178.5625 C 24.058594 181.171875 21.519531 184.058594 19.671875 187.238281 C 22.5 184.730469 25.652344 182.648438 28.890625 180.816406 C 30.511719 179.90625 32.1875 179.085938 33.867188 178.328125 "/></g><g clip-rule="nonzero" clip-path="url(#1e34d08c59)"><g clip-rule="nonzero" clip-path="url(#a904541fe5)"><g clip-rule="nonzero" clip-path="url(#3f1441a1ba)"><path style=" stroke:none;fill-rule:nonzero;fill:url(#8ad4b11367);" d="M 355.574219 200.925781 L 187.585938 200.925781 L 187.585938 231.703125 L 355.574219 231.703125 Z M 355.574219 200.925781 "/></g></g></g></g></svg>