<svg xmlns="http://www.w3.org/2000/svg" xmlns:xlink="http://www.w3.org/1999/xlink" width="500" zoomAndPan="magnify" viewBox="0 0 375 374.999991" height="500" preserveAspectRatio="xMidYMid meet" version="1.2"><defs><clipPath id="e520966572"><path d="M 112.527344 149 L 262.488281 149 L 262.488281 172.765625 L 112.527344 172.765625 Z M 112.527344 149 "/></clipPath><clipPath id="9e1763099f"><path d="M 213.777344 157.496094 C 215.296875 157.757812 216.820312 158.128906 218.328125 158.617188 C 219.078125 158.863281 219.832031 159.125 220.574219 159.425781 L 221.765625 159.886719 L 223.03125 160.363281 C 226.402344 161.601562 229.851562 162.640625 233.378906 163.390625 C 236.902344 164.136719 240.5 164.589844 244.113281 164.574219 C 247.714844 164.546875 251.359375 164.058594 254.71875 162.726562 C 256.390625 162.0625 257.980469 161.175781 259.351562 160.03125 C 260.714844 158.886719 261.847656 157.453125 262.488281 155.839844 C 261.613281 157.34375 260.328125 158.53125 258.898438 159.40625 C 257.457031 160.285156 255.871094 160.878906 254.25 161.261719 C 250.992188 162.019531 247.601562 161.972656 244.3125 161.503906 C 241.015625 161.027344 237.785156 160.121094 234.660156 158.957031 C 231.53125 157.789062 228.5 156.359375 225.5625 154.757812 L 224.464844 154.144531 L 223.921875 153.835938 L 223.308594 153.515625 C 222.480469 153.078125 221.632812 152.679688 220.777344 152.292969 C 219.054688 151.53125 217.261719 150.886719 215.414062 150.363281 C 211.71875 149.332031 207.765625 148.867188 203.804688 149.136719 C 197.285156 149.585938 191.191406 152.363281 185.816406 155.949219 C 183.355469 157.589844 180.976562 159.34375 178.484375 160.9375 C 175.851562 162.621094 173.359375 163.691406 170.261719 164.234375 C 167.339844 164.746094 164.289062 164.730469 161.242188 164.21875 C 159.71875 163.953125 158.195312 163.582031 156.691406 163.097656 C 155.9375 162.847656 155.1875 162.585938 154.441406 162.289062 L 153.25 161.824219 L 151.988281 161.351562 C 148.617188 160.113281 145.164062 159.070312 141.640625 158.324219 C 138.117188 157.578125 134.519531 157.121094 130.90625 157.136719 C 127.304688 157.164062 123.660156 157.65625 120.300781 158.988281 C 118.628906 159.652344 117.039062 160.535156 115.667969 161.683594 C 114.300781 162.824219 113.171875 164.257812 112.527344 165.871094 C 113.402344 164.371094 114.6875 163.183594 116.121094 162.304688 C 117.558594 161.425781 119.144531 160.832031 120.769531 160.453125 C 124.027344 159.691406 127.414062 159.742188 130.703125 160.207031 C 134.003906 160.683594 137.234375 161.589844 140.359375 162.753906 C 143.488281 163.921875 146.519531 165.351562 149.457031 166.957031 L 150.550781 167.566406 L 151.097656 167.875 L 151.710938 168.199219 C 152.535156 168.632812 153.382812 169.03125 154.242188 169.417969 C 155.960938 170.179688 157.753906 170.824219 159.601562 171.347656 C 163.300781 172.382812 167.253906 172.84375 171.214844 172.574219 C 175.933594 172.257812 180.542969 170.984375 184.636719 168.628906 C 189.40625 165.886719 193.53125 161.96875 198.492188 159.644531 C 203.246094 157.421875 208.585938 156.597656 213.777344 157.496094 Z M 213.777344 157.496094 "/></clipPath><clipPath id="fc1767a5f1"><path d="M 213.777344 157.496094 C 215.296875 157.757812 216.820312 158.128906 218.328125 158.617188 C 219.078125 158.863281 219.832031 159.125 220.574219 159.425781 L 221.765625 159.886719 L 223.03125 160.363281 C 226.402344 161.601562 229.851562 162.640625 233.378906 163.390625 C 236.902344 164.136719 240.5 164.589844 244.113281 164.574219 C 247.714844 164.546875 251.359375 164.058594 254.71875 162.726562 C 256.390625 162.0625 257.980469 161.175781 259.351562 160.03125 C 260.714844 158.886719 261.847656 157.453125 262.488281 155.839844 C 261.613281 157.34375 260.328125 158.53125 258.898438 159.40625 C 257.457031 160.285156 255.871094 160.878906 254.25 161.261719 C 250.992188 162.019531 247.601562 161.972656 244.3125 161.503906 C 241.015625 161.027344 237.785156 160.121094 234.660156 158.957031 C 231.53125 157.789062 228.5 156.359375 225.5625 154.757812 L 224.464844 154.144531 L 223.921875 153.835938 L 223.308594 153.515625 C 222.480469 153.078125 221.632812 152.679688 220.777344 152.292969 C 219.054688 151.53125 217.261719 150.886719 215.414062 150.363281 C 211.71875 149.332031 207.765625 148.867188 203.804688 149.136719 C 197.285156 149.585938 191.191406 152.363281 185.816406 155.949219 C 183.355469 157.589844 180.976562 159.34375 178.484375 160.9375 C 175.851562 162.621094 173.359375 163.691406 170.261719 164.234375 C 167.339844 164.746094 164.289062 164.730469 161.242188 164.21875 C 159.71875 163.953125 158.195312 163.582031 156.691406 163.097656 C 155.9375 162.847656 155.1875 162.585938 154.441406 162.289062 L 153.25 161.824219 L 151.988281 161.351562 C 148.617188 160.113281 145.164062 159.070312 141.640625 158.324219 C 138.117188 157.578125 134.519531 157.121094 130.90625 157.136719 C 127.304688 157.164062 123.660156 157.65625 120.300781 158.988281 C 118.628906 159.652344 117.039062 160.535156 115.667969 161.683594 C 114.300781 162.824219 113.171875 164.257812 112.527344 165.871094 C 113.402344 164.371094 114.6875 163.183594 116.121094 162.304688 C 117.558594 161.425781 119.144531 160.832031 120.769531 160.453125 C 124.027344 159.691406 127.414062 159.742188 130.703125 160.207031 C 134.003906 160.683594 137.234375 161.589844 140.359375 162.753906 C 143.488281 163.921875 146.519531 165.351562 149.457031 166.957031 L 150.550781 167.566406 L 151.097656 167.875 L 151.710938 168.199219 C 152.535156 168.632812 153.382812 169.03125 154.242188 169.417969 C 155.960938 170.179688 157.753906 170.824219 159.601562 171.347656 C 163.300781 172.382812 167.253906 172.84375 171.214844 172.574219 C 175.933594 172.257812 180.542969 170.984375 184.636719 168.628906 C 189.40625 165.886719 193.53125 161.96875 198.492188 159.644531 C 203.246094 157.421875 208.585938 156.597656 213.777344 157.496094 "/></clipPath><linearGradient x1="0.000000188667" gradientTransform="matrix(0,62.501676,-62.616571,0,187.50909,148.991726)" y1="0" x2="0.380403" gradientUnits="userSpaceOnUse" y2="0" id="73e094e826"><stop style="stop-color:#69afe0;stop-opacity:1;" offset="0"/><stop style="stop-color:#69afe0;stop-opacity:1;" offset="0.03125"/><stop style="stop-color:#69afe0;stop-opacity:1;" offset="0.046875"/><stop style="stop-color:#68afe0;stop-opacity:1;" offset="0.0625"/><stop style="stop-color:#67afe0;stop-opacity:1;" offset="0.078125"/><stop style="stop-color:#67aee0;stop-opacity:1;" offset="0.09375"/><stop style="stop-color:#66aee0;stop-opacity:1;" offset="0.109375"/><stop style="stop-color:#66aee0;stop-opacity:1;" offset="0.125"/><stop style="stop-color:#65aee0;stop-opacity:1;" offset="0.140625"/><stop style="stop-color:#65aedf;stop-opacity:1;" offset="0.15625"/><stop style="stop-color:#64aedf;stop-opacity:1;" offset="0.171875"/><stop style="stop-color:#63aedf;stop-opacity:1;" offset="0.179688"/><stop style="stop-color:#63aedf;stop-opacity:1;" offset="0.1875"/><stop style="stop-color:#62addf;stop-opacity:1;" offset="0.203125"/><stop style="stop-color:#62addf;stop-opacity:1;" offset="0.21875"/><stop style="stop-color:#61addf;stop-opacity:1;" offset="0.226563"/><stop style="stop-color:#61addf;stop-opacity:1;" offset="0.234375"/><stop style="stop-color:#60addf;stop-opacity:1;" offset="0.25"/><stop style="stop-color:#5faddf;stop-opacity:1;" offset="0.28125"/><stop style="stop-color:#5eacdf;stop-opacity:1;" offset="0.296875"/><stop style="stop-color:#5dacdf;stop-opacity:1;" offset="0.3125"/><stop style="stop-color:#5dacdf;stop-opacity:1;" offset="0.320313"/><stop style="stop-color:#5cacde;stop-opacity:1;" offset="0.328125"/><stop style="stop-color:#5bacde;stop-opacity:1;" offset="0.34375"/><stop style="stop-color:#5babde;stop-opacity:1;" offset="0.359375"/><stop style="stop-color:#5aabde;stop-opacity:1;" offset="0.375"/><stop style="stop-color:#59abde;stop-opacity:1;" offset="0.390625"/><stop style="stop-color:#59abde;stop-opacity:1;" offset="0.398438"/><stop style="stop-color:#58abde;stop-opacity:1;" offset="0.40625"/><stop style="stop-color:#57abde;stop-opacity:1;" offset="0.421875"/><stop style="stop-color:#56aade;stop-opacity:1;" offset="0.4375"/><stop style="stop-color:#56aade;stop-opacity:1;" offset="0.445313"/><stop style="stop-color:#55aade;stop-opacity:1;" offset="0.453125"/><stop style="stop-color:#54aade;stop-opacity:1;" offset="0.46875"/><stop style="stop-color:#54aadd;stop-opacity:1;" offset="0.476563"/><stop style="stop-color:#53a9dd;stop-opacity:1;" offset="0.484375"/><stop style="stop-color:#52a9dd;stop-opacity:1;" offset="0.5"/><stop style="stop-color:#52a9dd;stop-opacity:1;" offset="0.515625"/><stop style="stop-color:#51a9dd;stop-opacity:1;" offset="0.519531"/><stop style="stop-color:#50a9dd;stop-opacity:1;" offset="0.523438"/><stop style="stop-color:#50a9dd;stop-opacity:1;" offset="0.53125"/><stop style="stop-color:#50a9dd;stop-opacity:1;" offset="0.546875"/><stop style="stop-color:#4fa8dd;stop-opacity:1;" offset="0.554688"/><stop style="stop-color:#4ea8dd;stop-opacity:1;" offset="0.5625"/><stop style="stop-color:#4ea8dd;stop-opacity:1;" offset="0.566406"/><stop style="stop-color:#4da8dd;stop-opacity:1;" offset="0.570313"/><stop style="stop-color:#4da8dd;stop-opacity:1;" offset="0.578125"/><stop style="stop-color:#4da8dd;stop-opacity:1;" offset="0.585938"/><stop style="stop-color:#4ca8dc;stop-opacity:1;" offset="0.59375"/><stop style="stop-color:#4ca7dc;stop-opacity:1;" offset="0.601563"/><stop style="stop-color:#4ba7dc;stop-opacity:1;" offset="0.609375"/><stop style="stop-color:#4aa7dc;stop-opacity:1;" offset="0.617188"/><stop style="stop-color:#4aa7dc;stop-opacity:1;" offset="0.625"/><stop style="stop-color:#49a7dc;stop-opacity:1;" offset="0.632813"/><stop style="stop-color:#49a7dc;stop-opacity:1;" offset="0.640625"/><stop style="stop-color:#48a7dc;stop-opacity:1;" offset="0.648438"/><stop style="stop-color:#48a7dc;stop-opacity:1;" offset="0.65625"/><stop style="stop-color:#47a6dc;stop-opacity:1;" offset="0.664063"/><stop style="stop-color:#47a6dc;stop-opacity:1;" offset="0.671875"/><stop style="stop-color:#46a6dc;stop-opacity:1;" offset="0.6875"/><stop style="stop-color:#45a6dc;stop-opacity:1;" offset="0.695313"/><stop style="stop-color:#45a6dc;stop-opacity:1;" offset="0.703125"/><stop style="stop-color:#44a6db;stop-opacity:1;" offset="0.710938"/><stop style="stop-color:#44a5db;stop-opacity:1;" offset="0.71875"/><stop style="stop-color:#43a5db;stop-opacity:1;" offset="0.726563"/><stop style="stop-color:#43a5db;stop-opacity:1;" offset="0.734375"/><stop style="stop-color:#42a5db;stop-opacity:1;" offset="0.75"/><stop style="stop-color:#41a5db;stop-opacity:1;" offset="0.757812"/><stop style="stop-color:#40a5db;stop-opacity:1;" offset="0.765625"/><stop style="stop-color:#40a4db;stop-opacity:1;" offset="0.773438"/><stop style="stop-color:#3fa4db;stop-opacity:1;" offset="0.78125"/><stop style="stop-color:#3fa4db;stop-opacity:1;" offset="0.789062"/><stop style="stop-color:#3ea4db;stop-opacity:1;" offset="0.796875"/><stop style="stop-color:#3ea4db;stop-opacity:1;" offset="0.804688"/><stop style="stop-color:#3da4db;stop-opacity:1;" offset="0.8125"/><stop style="stop-color:#3ca4da;stop-opacity:1;" offset="0.820312"/><stop style="stop-color:#3ca3da;stop-opacity:1;" offset="0.828125"/><stop style="stop-color:#3ba3da;stop-opacity:1;" offset="0.84375"/><stop style="stop-color:#3aa3da;stop-opacity:1;" offset="0.851562"/><stop style="stop-color:#39a3da;stop-opacity:1;" offset="0.859375"/><stop style="stop-color:#39a3da;stop-opacity:1;" offset="0.867188"/><stop style="stop-color:#38a2da;stop-opacity:1;" offset="0.875"/><stop style="stop-color:#38a2da;stop-opacity:1;" offset="0.882812"/><stop style="stop-color:#37a2da;stop-opacity:1;" offset="0.890625"/><stop style="stop-color:#36a2da;stop-opacity:1;" offset="0.898438"/><stop style="stop-color:#36a2da;stop-opacity:1;" offset="0.90625"/><stop style="stop-color:#35a2da;stop-opacity:1;" offset="0.921875"/><stop style="stop-color:#34a1d9;stop-opacity:1;" offset="0.929688"/><stop style="stop-color:#33a1d9;stop-opacity:1;" offset="0.9375"/><stop style="stop-color:#33a1d9;stop-opacity:1;" offset="0.945312"/><stop style="stop-color:#32a1d9;stop-opacity:1;" offset="0.953125"/><stop style="stop-color:#32a1d9;stop-opacity:1;" offset="0.960938"/><stop style="stop-color:#31a1d9;stop-opacity:1;" offset="0.96875"/><stop style="stop-color:#30a0d9;stop-opacity:1;" offset="0.976562"/><stop style="stop-color:#30a0d9;stop-opacity:1;" offset="0.984375"/><stop style="stop-color:#2fa0d9;stop-opacity:1;" offset="0.992188"/><stop style="stop-color:#2fa0d9;stop-opacity:1;" offset="1"/></linearGradient><clipPath id="da8588cd2f"><path d="M 148.617188 169.511719 L 175.195312 169.511719 L 175.195312 208.160156 L 148.617188 208.160156 Z M 148.617188 169.511719 "/></clipPath><clipPath id="fd18733d39"><path d="M 168.957031 175.292969 C 165.601562 175.292969 162.226562 174.824219 158.890625 173.894531 C 156.914062 173.335938 154.992188 172.640625 153.167969 171.832031 C 152.101562 171.355469 151.25 170.945312 150.472656 170.53125 L 149.242188 169.863281 L 148.617188 169.511719 L 148.617188 208.160156 L 175.195312 208.160156 L 175.195312 174.753906 C 173.953125 174.96875 172.683594 175.121094 171.390625 175.207031 C 170.582031 175.265625 169.769531 175.292969 168.957031 175.292969 Z M 168.957031 175.292969 "/></clipPath><clipPath id="92fe23a467"><path d="M 168.957031 175.292969 C 165.601562 175.292969 162.226562 174.824219 158.890625 173.894531 C 156.914062 173.335938 154.992188 172.640625 153.167969 171.832031 C 152.101562 171.355469 151.25 170.945312 150.472656 170.53125 L 149.242188 169.863281 L 148.617188 169.511719 L 148.617188 208.160156 L 175.195312 208.160156 L 175.195312 174.753906 C 173.953125 174.96875 172.683594 175.121094 171.390625 175.207031 C 170.582031 175.265625 169.769531 175.292969 168.957031 175.292969 "/></clipPath><linearGradient x1="0.328338" gradientTransform="matrix(0,62.501676,-62.616571,0,161.905305,148.991726)" y1="0" x2="0.946651" gradientUnits="userSpaceOnUse" y2="0" id="6a32973c3f"><stop style="stop-color:#38a3da;stop-opacity:1;" offset="0"/><stop style="stop-color:#38a2da;stop-opacity:1;" offset="0.0078125"/><stop style="stop-color:#38a2da;stop-opacity:1;" offset="0.015625"/><stop style="stop-color:#36a2da;stop-opacity:1;" offset="0.0195313"/><stop style="stop-color:#36a2da;stop-opacity:1;" offset="0.0234375"/><stop style="stop-color:#35a2da;stop-opacity:1;" offset="0.03125"/><stop style="stop-color:#34a1d9;stop-opacity:1;" offset="0.0390625"/><stop style="stop-color:#33a1d9;stop-opacity:1;" offset="0.046875"/><stop style="stop-color:#32a1d9;stop-opacity:1;" offset="0.0546875"/><stop style="stop-color:#31a1d9;stop-opacity:1;" offset="0.0625"/><stop style="stop-color:#30a0d9;stop-opacity:1;" offset="0.0664063"/><stop style="stop-color:#30a0d9;stop-opacity:1;" offset="0.0703125"/><stop style="stop-color:#2fa0d9;stop-opacity:1;" offset="0.078125"/><stop style="stop-color:#2ea0d9;stop-opacity:1;" offset="0.0859375"/><stop style="stop-color:#2d9fd9;stop-opacity:1;" offset="0.09375"/><stop style="stop-color:#2c9fd8;stop-opacity:1;" offset="0.101562"/><stop style="stop-color:#2c9fd8;stop-opacity:1;" offset="0.105469"/><stop style="stop-color:#2b9fd8;stop-opacity:1;" offset="0.109375"/><stop style="stop-color:#2a9fd8;stop-opacity:1;" offset="0.117187"/><stop style="stop-color:#299fd8;stop-opacity:1;" offset="0.121094"/><stop style="stop-color:#299ed8;stop-opacity:1;" offset="0.125"/><stop style="stop-color:#289ed8;stop-opacity:1;" offset="0.132812"/><stop style="stop-color:#279ed8;stop-opacity:1;" offset="0.136719"/><stop style="stop-color:#269ed8;stop-opacity:1;" offset="0.140625"/><stop style="stop-color:#259ed8;stop-opacity:1;" offset="0.144531"/><stop style="stop-color:#259ed8;stop-opacity:1;" offset="0.148437"/><stop style="stop-color:#249dd8;stop-opacity:1;" offset="0.152344"/><stop style="stop-color:#249dd8;stop-opacity:1;" offset="0.15625"/><stop style="stop-color:#239dd7;stop-opacity:1;" offset="0.160156"/><stop style="stop-color:#239dd7;stop-opacity:1;" offset="0.164062"/><stop style="stop-color:#229dd7;stop-opacity:1;" offset="0.167969"/><stop style="stop-color:#229dd7;stop-opacity:1;" offset="0.171875"/><stop style="stop-color:#219dd7;stop-opacity:1;" offset="0.175781"/><stop style="stop-color:#219dd7;stop-opacity:1;" offset="0.179687"/><stop style="stop-color:#209dd7;stop-opacity:1;" offset="0.183594"/><stop style="stop-color:#209cd7;stop-opacity:1;" offset="0.1875"/><stop style="stop-color:#209cd7;stop-opacity:1;" offset="0.195312"/><stop style="stop-color:#1f9cd7;stop-opacity:1;" offset="0.199219"/><stop style="stop-color:#1e9cd7;stop-opacity:1;" offset="0.203125"/><stop style="stop-color:#1e9cd7;stop-opacity:1;" offset="0.207031"/><stop style="stop-color:#1d9bd7;stop-opacity:1;" offset="0.210938"/><stop style="stop-color:#1d9bd6;stop-opacity:1;" offset="0.214844"/><stop style="stop-color:#1c9bd6;stop-opacity:1;" offset="0.21875"/><stop style="stop-color:#1c9bd6;stop-opacity:1;" offset="0.222656"/><stop style="stop-color:#1b9bd6;stop-opacity:1;" offset="0.226562"/><stop style="stop-color:#1a9bd6;stop-opacity:1;" offset="0.230469"/><stop style="stop-color:#1a9bd6;stop-opacity:1;" offset="0.234375"/><stop style="stop-color:#199ad6;stop-opacity:1;" offset="0.242188"/><stop style="stop-color:#189ad6;stop-opacity:1;" offset="0.25"/><stop style="stop-color:#179ad6;stop-opacity:1;" offset="0.257813"/><stop style="stop-color:#169ad6;stop-opacity:1;" offset="0.261719"/><stop style="stop-color:#159ad6;stop-opacity:1;" offset="0.265625"/><stop style="stop-color:#149ad6;stop-opacity:1;" offset="0.269531"/><stop style="stop-color:#1499d6;stop-opacity:1;" offset="0.273438"/><stop style="stop-color:#1499d5;stop-opacity:1;" offset="0.28125"/><stop style="stop-color:#1399d5;stop-opacity:1;" offset="0.285156"/><stop style="stop-color:#1299d5;stop-opacity:1;" offset="0.289063"/><stop style="stop-color:#1298d5;stop-opacity:1;" offset="0.292969"/><stop style="stop-color:#1198d5;stop-opacity:1;" offset="0.296875"/><stop style="stop-color:#1198d5;stop-opacity:1;" offset="0.304688"/><stop style="stop-color:#1098d5;stop-opacity:1;" offset="0.308594"/><stop style="stop-color:#0f98d5;stop-opacity:1;" offset="0.3125"/><stop style="stop-color:#0e98d5;stop-opacity:1;" offset="0.316406"/><stop style="stop-color:#0e98d5;stop-opacity:1;" offset="0.320312"/><stop style="stop-color:#0d97d5;stop-opacity:1;" offset="0.328125"/><stop style="stop-color:#0c97d4;stop-opacity:1;" offset="0.332031"/><stop style="stop-color:#0b97d4;stop-opacity:1;" offset="0.335938"/><stop style="stop-color:#0a97d4;stop-opacity:1;" offset="0.339844"/><stop style="stop-color:#0a97d4;stop-opacity:1;" offset="0.34375"/><stop style="stop-color:#0996d4;stop-opacity:1;" offset="0.347656"/><stop style="stop-color:#0996d4;stop-opacity:1;" offset="0.351563"/><stop style="stop-color:#0896d4;stop-opacity:1;" offset="0.355469"/><stop style="stop-color:#0896d4;stop-opacity:1;" offset="0.359375"/><stop style="stop-color:#0796d4;stop-opacity:1;" offset="0.367188"/><stop style="stop-color:#0695d4;stop-opacity:1;" offset="0.371094"/><stop style="stop-color:#0695d4;stop-opacity:1;" offset="0.375"/><stop style="stop-color:#0695d4;stop-opacity:1;" offset="0.382812"/><stop style="stop-color:#0495d3;stop-opacity:1;" offset="0.386719"/><stop style="stop-color:#0395d3;stop-opacity:1;" offset="0.390625"/><stop style="stop-color:#0395d3;stop-opacity:1;" offset="0.394531"/><stop style="stop-color:#0295d3;stop-opacity:1;" offset="0.398438"/><stop style="stop-color:#0294d3;stop-opacity:1;" offset="0.402344"/><stop style="stop-color:#0194d3;stop-opacity:1;" offset="0.40625"/><stop style="stop-color:#0194d3;stop-opacity:1;" offset="0.410156"/><stop style="stop-color:#0094d3;stop-opacity:1;" offset="0.414062"/><stop style="stop-color:#0094d3;stop-opacity:1;" offset="0.421875"/><stop style="stop-color:#0093d3;stop-opacity:1;" offset="0.4375"/><stop style="stop-color:#0093d2;stop-opacity:1;" offset="0.453125"/><stop style="stop-color:#0092d2;stop-opacity:1;" offset="0.46875"/><stop style="stop-color:#0092d1;stop-opacity:1;" offset="0.476562"/><stop style="stop-color:#0091d1;stop-opacity:1;" offset="0.484375"/><stop style="stop-color:#0091d1;stop-opacity:1;" offset="0.5"/><stop style="stop-color:#0090d0;stop-opacity:1;" offset="0.515625"/><stop style="stop-color:#008fd0;stop-opacity:1;" offset="0.523438"/><stop style="stop-color:#008ecf;stop-opacity:1;" offset="0.53125"/><stop style="stop-color:#008ecf;stop-opacity:1;" offset="0.546875"/><stop style="stop-color:#008dcf;stop-opacity:1;" offset="0.5625"/><stop style="stop-color:#008dce;stop-opacity:1;" offset="0.570312"/><stop style="stop-color:#008cce;stop-opacity:1;" offset="0.578125"/><stop style="stop-color:#008bce;stop-opacity:1;" offset="0.59375"/><stop style="stop-color:#008bcd;stop-opacity:1;" offset="0.601562"/><stop style="stop-color:#008acd;stop-opacity:1;" offset="0.609375"/><stop style="stop-color:#0089cd;stop-opacity:1;" offset="0.625"/><stop style="stop-color:#0089cc;stop-opacity:1;" offset="0.640625"/><stop style="stop-color:#0089cc;stop-opacity:1;" offset="0.648438"/><stop style="stop-color:#0088cb;stop-opacity:1;" offset="0.65625"/><stop style="stop-color:#0087ca;stop-opacity:1;" offset="0.671875"/><stop style="stop-color:#0086ca;stop-opacity:1;" offset="0.6875"/><stop style="stop-color:#0086ca;stop-opacity:1;" offset="0.695312"/><stop style="stop-color:#0085c9;stop-opacity:1;" offset="0.703125"/><stop style="stop-color:#0085c9;stop-opacity:1;" offset="0.71875"/><stop style="stop-color:#0085c9;stop-opacity:1;" offset="0.726562"/><stop style="stop-color:#0084c8;stop-opacity:1;" offset="0.734375"/><stop style="stop-color:#0084c8;stop-opacity:1;" offset="0.75"/><stop style="stop-color:#0083c7;stop-opacity:1;" offset="0.765625"/><stop style="stop-color:#0082c7;stop-opacity:1;" offset="0.773438"/><stop style="stop-color:#0081c7;stop-opacity:1;" offset="0.78125"/><stop style="stop-color:#0081c6;stop-opacity:1;" offset="0.796875"/><stop style="stop-color:#0080c6;stop-opacity:1;" offset="0.8125"/><stop style="stop-color:#0080c6;stop-opacity:1;" offset="0.820313"/><stop style="stop-color:#007fc5;stop-opacity:1;" offset="0.828125"/><stop style="stop-color:#007fc5;stop-opacity:1;" offset="0.84375"/><stop style="stop-color:#007ec5;stop-opacity:1;" offset="0.851562"/><stop style="stop-color:#007dc4;stop-opacity:1;" offset="0.859375"/><stop style="stop-color:#007cc4;stop-opacity:1;" offset="0.875"/><stop style="stop-color:#007cc3;stop-opacity:1;" offset="0.890625"/><stop style="stop-color:#007cc3;stop-opacity:1;" offset="0.898438"/><stop style="stop-color:#007bc2;stop-opacity:1;" offset="0.90625"/><stop style="stop-color:#007ac2;stop-opacity:1;" offset="0.921875"/><stop style="stop-color:#007ac2;stop-opacity:1;" offset="0.9375"/><stop style="stop-color:#0079c1;stop-opacity:1;" offset="0.945312"/><stop style="stop-color:#0078c1;stop-opacity:1;" offset="0.953125"/><stop style="stop-color:#0078c1;stop-opacity:1;" offset="0.96875"/><stop style="stop-color:#0078c0;stop-opacity:1;" offset="0.976562"/><stop style="stop-color:#0077c0;stop-opacity:1;" offset="0.984375"/><stop style="stop-color:#0077c0;stop-opacity:1;" offset="1"/></linearGradient><clipPath id="6828a007a5"><path d="M 112.5 106.160156 L 227 106.160156 L 227 159 L 112.5 159 Z M 112.5 106.160156 "/></clipPath><clipPath id="fdea64881d"><path d="M 187.492188 163.148438 L 262.488281 163.148438 L 262.488281 176.871094 L 187.492188 176.871094 Z M 187.492188 163.148438 "/></clipPath><clipPath id="01025cb189"><path d="M 256.152344 168.640625 C 255.394531 168.972656 254.628906 169.269531 253.855469 169.53125 C 250.75 170.574219 247.519531 170.984375 244.34375 170.847656 C 241.167969 170.714844 238.042969 170.058594 235.046875 169.050781 C 229.960938 167.335938 225.402344 164.921875 220.007812 163.902344 C 219.675781 163.839844 219.34375 163.78125 219.007812 163.722656 C 214.007812 162.898438 208.769531 162.945312 203.8125 164.25 C 200.179688 165.191406 196.769531 166.84375 193.953125 169.035156 C 191.972656 170.570312 190.289062 172.359375 188.96875 174.308594 C 188.410156 175.136719 187.910156 175.992188 187.492188 176.871094 C 188.5 175.957031 189.539062 175.101562 190.609375 174.308594 L 191.8125 174.308594 C 201.191406 174.308594 208.644531 172.289062 214.199219 168.269531 C 217.261719 168.605469 220.277344 169.261719 223.179688 170.109375 C 226.621094 171.113281 229.839844 172.59375 233.316406 173.519531 C 235.074219 173.972656 236.886719 174.324219 238.730469 174.523438 C 240.578125 174.710938 242.453125 174.78125 244.324219 174.636719 C 248.066406 174.386719 251.769531 173.34375 254.9375 171.601562 C 256.523438 170.738281 257.976562 169.699219 259.257812 168.539062 C 260.53125 167.375 261.664062 166.085938 262.488281 164.667969 C 261.226562 165.785156 259.820312 166.714844 258.375 167.53125 C 257.648438 167.941406 256.902344 168.300781 256.152344 168.640625 Z M 256.152344 168.640625 "/></clipPath><clipPath id="d23bcc457a"><path d="M 256.152344 168.640625 C 255.394531 168.972656 254.628906 169.269531 253.855469 169.53125 C 250.75 170.574219 247.519531 170.984375 244.34375 170.847656 C 241.167969 170.714844 238.042969 170.058594 235.046875 169.050781 C 229.960938 167.335938 225.402344 164.921875 220.007812 163.902344 C 219.675781 163.839844 219.34375 163.78125 219.007812 163.722656 C 214.007812 162.898438 208.769531 162.945312 203.8125 164.25 C 200.179688 165.191406 196.769531 166.84375 193.953125 169.035156 C 191.972656 170.570312 190.289062 172.359375 188.96875 174.308594 C 188.410156 175.136719 187.910156 175.992188 187.492188 176.871094 C 188.5 175.957031 189.539062 175.101562 190.609375 174.308594 L 191.8125 174.308594 C 201.191406 174.308594 208.644531 172.289062 214.199219 168.269531 C 217.261719 168.605469 220.277344 169.261719 223.179688 170.109375 C 226.621094 171.113281 229.839844 172.59375 233.316406 173.519531 C 235.074219 173.972656 236.886719 174.324219 238.730469 174.523438 C 240.578125 174.710938 242.453125 174.78125 244.324219 174.636719 C 248.066406 174.386719 251.769531 173.34375 254.9375 171.601562 C 256.523438 170.738281 257.976562 169.699219 259.257812 168.539062 C 260.53125 167.375 261.664062 166.085938 262.488281 164.667969 C 261.226562 165.785156 259.820312 166.714844 258.375 167.53125 C 257.648438 167.941406 256.902344 168.300781 256.152344 168.640625 "/></clipPath><linearGradient x1="0.226499" gradientTransform="matrix(0,62.501676,-62.616571,0,224.991149,148.991716)" y1="0" x2="0.446057" gradientUnits="userSpaceOnUse" y2="0" id="ec1c5d837a"><stop style="stop-color:#4ca7dc;stop-opacity:1;" offset="0"/><stop style="stop-color:#4ca7dc;stop-opacity:1;" offset="0.0078125"/><stop style="stop-color:#4ba7dc;stop-opacity:1;" offset="0.015625"/><stop style="stop-color:#4ba7dc;stop-opacity:1;" offset="0.03125"/><stop style="stop-color:#4aa7dc;stop-opacity:1;" offset="0.046875"/><stop style="stop-color:#4aa7dc;stop-opacity:1;" offset="0.0546875"/><stop style="stop-color:#49a7dc;stop-opacity:1;" offset="0.0625"/><stop style="stop-color:#49a7dc;stop-opacity:1;" offset="0.078125"/><stop style="stop-color:#48a7dc;stop-opacity:1;" offset="0.09375"/><stop style="stop-color:#47a7dc;stop-opacity:1;" offset="0.109375"/><stop style="stop-color:#47a6dc;stop-opacity:1;" offset="0.125"/><stop style="stop-color:#47a6dc;stop-opacity:1;" offset="0.15625"/><stop style="stop-color:#46a6dc;stop-opacity:1;" offset="0.171875"/><stop style="stop-color:#45a6dc;stop-opacity:1;" offset="0.179687"/><stop style="stop-color:#45a6db;stop-opacity:1;" offset="0.1875"/><stop style="stop-color:#44a6db;stop-opacity:1;" offset="0.203125"/><stop style="stop-color:#44a5db;stop-opacity:1;" offset="0.21875"/><stop style="stop-color:#43a5db;stop-opacity:1;" offset="0.234375"/><stop style="stop-color:#42a5db;stop-opacity:1;" offset="0.25"/><stop style="stop-color:#42a5db;stop-opacity:1;" offset="0.265625"/><stop style="stop-color:#41a5db;stop-opacity:1;" offset="0.28125"/><stop style="stop-color:#40a5db;stop-opacity:1;" offset="0.296875"/><stop style="stop-color:#40a4db;stop-opacity:1;" offset="0.3125"/><stop style="stop-color:#3fa4db;stop-opacity:1;" offset="0.320312"/><stop style="stop-color:#3fa4db;stop-opacity:1;" offset="0.328125"/><stop style="stop-color:#3ea4db;stop-opacity:1;" offset="0.34375"/><stop style="stop-color:#3ea4db;stop-opacity:1;" offset="0.359375"/><stop style="stop-color:#3da4db;stop-opacity:1;" offset="0.375"/><stop style="stop-color:#3ca4da;stop-opacity:1;" offset="0.390625"/><stop style="stop-color:#3ca3da;stop-opacity:1;" offset="0.40625"/><stop style="stop-color:#3ba3da;stop-opacity:1;" offset="0.421875"/><stop style="stop-color:#3aa3da;stop-opacity:1;" offset="0.4375"/><stop style="stop-color:#3aa3da;stop-opacity:1;" offset="0.453125"/><stop style="stop-color:#39a3da;stop-opacity:1;" offset="0.46875"/><stop style="stop-color:#38a2da;stop-opacity:1;" offset="0.5"/><stop style="stop-color:#37a2da;stop-opacity:1;" offset="0.507812"/><stop style="stop-color:#37a2da;stop-opacity:1;" offset="0.515625"/><stop style="stop-color:#36a2da;stop-opacity:1;" offset="0.523438"/><stop style="stop-color:#36a2da;stop-opacity:1;" offset="0.53125"/><stop style="stop-color:#35a2da;stop-opacity:1;" offset="0.5625"/><stop style="stop-color:#34a1d9;stop-opacity:1;" offset="0.570312"/><stop style="stop-color:#34a1d9;stop-opacity:1;" offset="0.578125"/><stop style="stop-color:#33a1d9;stop-opacity:1;" offset="0.59375"/><stop style="stop-color:#33a1d9;stop-opacity:1;" offset="0.609375"/><stop style="stop-color:#32a1d9;stop-opacity:1;" offset="0.625"/><stop style="stop-color:#31a1d9;stop-opacity:1;" offset="0.640625"/><stop style="stop-color:#31a0d9;stop-opacity:1;" offset="0.65625"/><stop style="stop-color:#30a0d9;stop-opacity:1;" offset="0.671875"/><stop style="stop-color:#2fa0d9;stop-opacity:1;" offset="0.679687"/><stop style="stop-color:#2fa0d9;stop-opacity:1;" offset="0.6875"/><stop style="stop-color:#2ea0d9;stop-opacity:1;" offset="0.703125"/><stop style="stop-color:#2ea0d9;stop-opacity:1;" offset="0.71875"/><stop style="stop-color:#2da0d9;stop-opacity:1;" offset="0.734375"/><stop style="stop-color:#2c9fd8;stop-opacity:1;" offset="0.75"/><stop style="stop-color:#2b9fd8;stop-opacity:1;" offset="0.765625"/><stop style="stop-color:#2b9fd8;stop-opacity:1;" offset="0.78125"/><stop style="stop-color:#2a9fd8;stop-opacity:1;" offset="0.796875"/><stop style="stop-color:#299fd8;stop-opacity:1;" offset="0.8125"/><stop style="stop-color:#289fd8;stop-opacity:1;" offset="0.828125"/><stop style="stop-color:#289ed8;stop-opacity:1;" offset="0.84375"/><stop style="stop-color:#289ed8;stop-opacity:1;" offset="0.851562"/><stop style="stop-color:#279ed8;stop-opacity:1;" offset="0.859375"/><stop style="stop-color:#269ed8;stop-opacity:1;" offset="0.875"/><stop style="stop-color:#259ed8;stop-opacity:1;" offset="0.890625"/><stop style="stop-color:#259ed8;stop-opacity:1;" offset="0.90625"/><stop style="stop-color:#249dd7;stop-opacity:1;" offset="0.921875"/><stop style="stop-color:#239dd7;stop-opacity:1;" offset="0.9375"/><stop style="stop-color:#229dd7;stop-opacity:1;" offset="0.953125"/><stop style="stop-color:#229dd7;stop-opacity:1;" offset="0.96875"/><stop style="stop-color:#229dd7;stop-opacity:1;" offset="0.976562"/><stop style="stop-color:#219cd7;stop-opacity:1;" offset="0.984375"/><stop style="stop-color:#209cd7;stop-opacity:1;" offset="1"/></linearGradient></defs><g id="8dfe5e006b"><g style="fill:#272727;fill-opacity:1;"><g transform="translate(87.260668, 253.119125)"><path style="stroke:none" d="M 4.609375 0.171875 L 4.609375 -17.453125 L 0.390625 -17.453125 L 0.6875 -20.6875 L 12.828125 -20.6875 L 12.5 -17.453125 L 8.625 -17.453125 L 8.625 -0.171875 Z M 4.609375 0.171875 "/></g></g><g style="fill:#272727;fill-opacity:1;"><g transform="translate(105.047498, 253.119125)"><path style="stroke:none" d="M 1.9375 0.171875 L 1.9375 -20.359375 L 5.984375 -20.6875 L 5.984375 -12.296875 L 9.84375 -12.296875 L 9.84375 -20.359375 L 13.90625 -20.6875 L 13.90625 -0.171875 L 9.84375 0.171875 L 9.84375 -8.609375 L 5.984375 -8.609375 L 5.984375 -0.171875 Z M 1.9375 0.171875 "/></g></g><g style="fill:#272727;fill-opacity:1;"><g transform="translate(125.509018, 253.119125)"><path style="stroke:none" d="M 1.9375 0.171875 L 1.9375 -20.359375 L 5.984375 -20.6875 L 5.984375 -0.171875 Z M 1.9375 0.171875 "/></g></g><g style="fill:#272727;fill-opacity:1;"><g transform="translate(138.056754, 253.119125)"><path style="stroke:none" d="M 1.9375 0 L 1.9375 -20.6875 L 12.4375 -20.6875 L 12.109375 -17.453125 L 5.984375 -17.453125 L 5.984375 -12.515625 L 10.34375 -12.515625 L 10.3125 -9.046875 L 5.984375 -9.046875 L 5.984375 -3.234375 L 12.65625 -3.234375 L 12.328125 0 Z M 2.15625 -21.984375 L 5.390625 -28.453125 L 8.09375 -28.453125 L 11.203125 -21.984375 L 7.84375 -21.984375 L 6.546875 -25.890625 L 4.96875 -21.984375 Z M 4.71875 6.0625 L 4.71875 2.171875 L 8.59375 2.171875 L 8.59375 6.0625 Z M 4.71875 6.0625 "/></g></g><g style="fill:#272727;fill-opacity:1;"><g transform="translate(156.00902, 253.119125)"><path style="stroke:none" d="M 11.578125 0.171875 L 5.546875 -12.765625 L 5.546875 -0.171875 L 1.9375 0 L 1.9375 -20.515625 L 6.15625 -20.6875 L 11.5 -8.390625 L 11.5 -20.359375 L 14.921875 -20.6875 L 14.921875 -0.171875 Z M 11.578125 0.171875 "/></g></g><g style="fill:#272727;fill-opacity:1;"><g transform="translate(177.49078, 253.119125)"><path style="stroke:none" d=""/></g></g><g style="fill:#272727;fill-opacity:1;"><g transform="translate(188.852817, 253.119125)"><path style="stroke:none" d="M 1.9375 -20.6875 L 4.515625 -20.6875 C 6.597656 -20.6875 8.253906 -20.597656 9.484375 -20.421875 C 10.710938 -20.242188 11.800781 -19.703125 12.75 -18.796875 C 13.695312 -17.898438 14.171875 -16.460938 14.171875 -14.484375 C 14.171875 -12.679688 13.769531 -11.3125 12.96875 -10.375 C 12.175781 -9.445312 11.191406 -8.84375 10.015625 -8.5625 C 8.847656 -8.28125 7.503906 -8.140625 5.984375 -8.140625 L 5.984375 -0.171875 L 1.9375 0.171875 Z M 6.703125 -11.421875 C 7.765625 -11.421875 8.601562 -11.640625 9.21875 -12.078125 C 9.84375 -12.515625 10.15625 -13.320312 10.15625 -14.5 C 10.15625 -15.664062 9.867188 -16.445312 9.296875 -16.84375 C 8.722656 -17.25 7.820312 -17.453125 6.59375 -17.453125 L 6.015625 -17.453125 L 6.015625 -11.421875 Z M 6.703125 -11.421875 "/></g></g><g style="fill:#272727;fill-opacity:1;"><g transform="translate(208.183798, 253.119125)"><path style="stroke:none" d="M 1.9375 0.171875 L 1.9375 -20.359375 L 5.984375 -20.6875 L 5.984375 -12.296875 L 9.84375 -12.296875 L 9.84375 -20.359375 L 13.90625 -20.6875 L 13.90625 -0.171875 L 9.84375 0.171875 L 9.84375 -8.609375 L 5.984375 -8.609375 L 5.984375 -0.171875 Z M 1.9375 0.171875 "/></g></g><g style="fill:#272727;fill-opacity:1;"><g transform="translate(228.645318, 253.119125)"><path style="stroke:none" d="M 17.515625 -21.84375 C 17.765625 -21.488281 17.988281 -21.097656 18.1875 -20.671875 C 18.394531 -20.253906 18.5 -19.734375 18.5 -19.109375 C 18.5 -18.335938 18.300781 -17.644531 17.90625 -17.03125 C 17.507812 -16.414062 16.992188 -15.929688 16.359375 -15.578125 C 15.734375 -15.234375 15.070312 -15.0625 14.375 -15.0625 C 14.144531 -15.0625 13.976562 -15.066406 13.875 -15.078125 L 13.875 -7.28125 C 13.875 -5.332031 13.488281 -3.566406 12.71875 -1.984375 C 11.957031 -0.398438 10.363281 0.390625 7.9375 0.390625 C 5.882812 0.390625 4.34375 -0.269531 3.3125 -1.59375 C 2.28125 -2.914062 1.765625 -4.65625 1.765625 -6.8125 L 1.765625 -20.515625 L 5.8125 -20.6875 L 5.8125 -6.484375 C 5.8125 -5.765625 5.851562 -5.15625 5.9375 -4.65625 C 6.019531 -4.164062 6.226562 -3.742188 6.5625 -3.390625 C 6.894531 -3.046875 7.398438 -2.875 8.078125 -2.875 C 8.722656 -2.875 9.195312 -3.050781 9.5 -3.40625 C 9.800781 -3.757812 9.988281 -4.179688 10.0625 -4.671875 C 10.132812 -5.160156 10.171875 -5.78125 10.171875 -6.53125 L 10.171875 -20.359375 L 13.875 -20.6875 L 13.875 -17.421875 C 14.40625 -17.367188 14.8125 -17.472656 15.09375 -17.734375 C 15.382812 -17.992188 15.53125 -18.304688 15.53125 -18.671875 C 15.53125 -18.984375 15.453125 -19.332031 15.296875 -19.71875 C 15.148438 -20.101562 14.976562 -20.472656 14.78125 -20.828125 Z M 17.515625 -21.84375 "/></g></g><g style="fill:#272727;fill-opacity:1;"><g transform="translate(250.954303, 253.119125)"><path style="stroke:none" d="M 16.71875 -19.0625 C 16.71875 -18.082031 16.414062 -17.238281 15.8125 -16.53125 C 15.21875 -15.820312 14.476562 -15.359375 13.59375 -15.140625 C 13.851562 -13.765625 13.984375 -12.238281 13.984375 -10.5625 C 13.984375 -7.414062 13.5 -4.800781 12.53125 -2.71875 C 11.570312 -0.644531 9.894531 0.390625 7.5 0.390625 C 5.164062 0.390625 3.523438 -0.613281 2.578125 -2.625 C 1.628906 -4.644531 1.15625 -7.253906 1.15625 -10.453125 C 1.15625 -13.847656 1.660156 -16.460938 2.671875 -18.296875 C 3.679688 -20.140625 5.3125 -21.0625 7.5625 -21.0625 C 10.070312 -21.0625 11.851562 -19.847656 12.90625 -17.421875 C 13.164062 -17.535156 13.367188 -17.703125 13.515625 -17.921875 C 13.660156 -18.140625 13.734375 -18.367188 13.734375 -18.609375 C 13.734375 -18.921875 13.660156 -19.269531 13.515625 -19.65625 C 13.367188 -20.050781 13.191406 -20.421875 12.984375 -20.765625 L 15.71875 -21.78125 C 15.976562 -21.4375 16.207031 -21.050781 16.40625 -20.625 C 16.613281 -20.207031 16.71875 -19.6875 16.71875 -19.0625 Z M 7.5625 -2.875 C 8.53125 -2.875 9.171875 -3.507812 9.484375 -4.78125 C 9.796875 -6.0625 9.953125 -8 9.953125 -10.59375 C 9.953125 -12.664062 9.800781 -14.382812 9.5 -15.75 C 9.195312 -17.125 8.550781 -17.8125 7.5625 -17.8125 C 6.5625 -17.8125 5.914062 -17.128906 5.625 -15.765625 C 5.332031 -14.410156 5.1875 -12.695312 5.1875 -10.625 C 5.1875 -8.007812 5.335938 -6.0625 5.640625 -4.78125 C 5.941406 -3.507812 6.582031 -2.875 7.5625 -2.875 Z M 8.03125 -21.875 L 6.59375 -23.25 L 10.171875 -28.6875 L 13.015625 -26.0625 Z M 8.03125 -21.875 "/></g></g><g style="fill:#272727;fill-opacity:1;"><g transform="translate(273.318438, 253.119125)"><path style="stroke:none" d="M 7.5625 0.390625 C 5.1875 0.390625 3.515625 -0.679688 2.546875 -2.828125 C 1.585938 -4.984375 1.109375 -7.632812 1.109375 -10.78125 C 1.109375 -12.46875 1.328125 -14.09375 1.765625 -15.65625 C 2.203125 -17.226562 2.910156 -18.519531 3.890625 -19.53125 C 4.878906 -20.550781 6.128906 -21.0625 7.640625 -21.0625 C 8.796875 -21.0625 9.8125 -20.703125 10.6875 -19.984375 C 11.5625 -19.273438 12.234375 -18.34375 12.703125 -17.1875 C 13.171875 -16.039062 13.40625 -14.84375 13.40625 -13.59375 L 9.484375 -13.40625 C 9.484375 -14.226562 9.34375 -15.164062 9.0625 -16.21875 C 8.789062 -17.28125 8.242188 -17.8125 7.421875 -17.8125 C 6.554688 -17.8125 5.957031 -17.117188 5.625 -15.734375 C 5.289062 -14.359375 5.125 -12.707031 5.125 -10.78125 C 5.125 -8.394531 5.304688 -6.476562 5.671875 -5.03125 C 6.046875 -3.59375 6.753906 -2.875 7.796875 -2.875 C 8.535156 -2.875 9.0625 -3.304688 9.375 -4.171875 C 9.6875 -5.046875 9.890625 -6.109375 9.984375 -7.359375 L 13.4375 -7.03125 C 13.4375 -5.707031 13.210938 -4.476562 12.765625 -3.34375 C 12.328125 -2.21875 11.664062 -1.3125 10.78125 -0.625 C 9.894531 0.0507812 8.820312 0.390625 7.5625 0.390625 Z M 7.5625 0.390625 "/></g></g><g clip-rule="nonzero" clip-path="url(#e520966572)"><g clip-rule="nonzero" clip-path="url(#9e1763099f)"><g clip-rule="nonzero" clip-path="url(#fc1767a5f1)"><path style=" stroke:none;fill-rule:nonzero;fill:url(#73e094e826);" d="M 262.488281 148.992188 L 112.527344 148.992188 L 112.527344 172.765625 L 262.488281 172.765625 Z M 262.488281 148.992188 "/></g></g></g><g clip-rule="nonzero" clip-path="url(#da8588cd2f)"><g clip-rule="nonzero" clip-path="url(#fd18733d39)"><g clip-rule="nonzero" clip-path="url(#92fe23a467)"><path style=" stroke:none;fill-rule:nonzero;fill:url(#6a32973c3f);" d="M 175.195312 169.511719 L 148.617188 169.511719 L 148.617188 208.160156 L 175.195312 208.160156 Z M 175.195312 169.511719 "/></g></g></g><g clip-rule="nonzero" clip-path="url(#6828a007a5)"><path style=" stroke:none;fill-rule:nonzero;fill:#f15a24;fill-opacity:1;" d="M 118.867188 153.070312 C 119.621094 152.738281 120.390625 152.445312 121.164062 152.179688 C 124.265625 151.136719 127.5 150.730469 130.675781 150.863281 C 133.851562 151 136.972656 151.65625 139.972656 152.664062 C 142.941406 153.664062 145.734375 154.902344 148.617188 155.964844 C 150.667969 156.71875 152.769531 157.386719 155.011719 157.808594 C 160.304688 158.8125 165.917969 158.851562 171.203125 157.460938 C 174.6875 156.558594 177.964844 154.992188 180.714844 152.9375 C 180.832031 152.847656 180.953125 152.765625 181.066406 152.675781 C 183.882812 150.488281 186.132812 147.789062 187.527344 144.839844 C 185.015625 147.125 182.3125 149.050781 179.394531 150.480469 C 178.027344 151.15625 176.625 151.710938 175.195312 152.171875 L 175.195312 127.53125 L 184.132812 127.53125 C 189.488281 127.53125 193.28125 128.667969 195.507812 130.941406 C 197.738281 133.210938 198.851562 136.25 198.851562 140.046875 C 198.851562 143.105469 198.222656 145.648438 196.988281 147.699219 C 199.226562 147.058594 201.441406 146.652344 203.625 146.503906 C 207.773438 146.21875 211.980469 146.664062 216.128906 147.820312 C 218.105469 148.378906 220.03125 149.074219 221.851562 149.882812 C 222.917969 150.359375 223.769531 150.773438 224.542969 151.179688 L 225.015625 151.4375 C 225.9375 147.878906 226.402344 143.980469 226.402344 139.75 C 226.402344 130.390625 223.707031 122.703125 218.316406 116.683594 C 212.074219 109.664062 202.941406 106.15625 190.917969 106.15625 L 148.617188 106.15625 L 148.617188 150.535156 C 146.328125 149.714844 144.074219 148.824219 141.703125 148.191406 C 139.941406 147.738281 138.128906 147.390625 136.285156 147.1875 C 134.441406 147 132.566406 146.929688 130.695312 147.078125 C 126.953125 147.324219 123.25 148.371094 120.082031 150.109375 C 118.492188 150.976562 117.039062 152.011719 115.761719 153.175781 C 114.488281 154.339844 113.355469 155.625 112.527344 157.042969 C 113.789062 155.925781 115.199219 154.996094 116.644531 154.179688 C 117.367188 153.773438 118.117188 153.410156 118.867188 153.070312 "/></g><g clip-rule="nonzero" clip-path="url(#fdea64881d)"><g clip-rule="nonzero" clip-path="url(#01025cb189)"><g clip-rule="nonzero" clip-path="url(#d23bcc457a)"><path style=" stroke:none;fill-rule:nonzero;fill:url(#ec1c5d837a);" d="M 262.488281 163.148438 L 187.492188 163.148438 L 187.492188 176.871094 L 262.488281 176.871094 Z M 262.488281 163.148438 "/></g></g></g></g></svg>